<?xml version="1.0" encoding="UTF-8" standalone="no"?>
<!-- Created with Inkscape (http://www.inkscape.org/) -->

<svg
   width="644.255mm"
   height="644.255mm"
   viewBox="0 0 644.25501 644.25503"
   version="1.1"
   id="svg1"
   xml:space="preserve"
   inkscape:version="1.3.2 (091e20ef0f, 2023-11-25, custom)"
   sodipodi:docname="kmp.svg"
   xmlns:inkscape="http://www.inkscape.org/namespaces/inkscape"
   xmlns:sodipodi="http://sodipodi.sourceforge.net/DTD/sodipodi-0.dtd"
   xmlns="http://www.w3.org/2000/svg"
   xmlns:svg="http://www.w3.org/2000/svg"><sodipodi:namedview
     id="namedview1"
     pagecolor="#ffffff"
     bordercolor="#000000"
     borderopacity="0.25"
     inkscape:showpageshadow="2"
     inkscape:pageopacity="0.0"
     inkscape:pagecheckerboard="0"
     inkscape:deskcolor="#d1d1d1"
     inkscape:document-units="mm"
     inkscape:zoom="0.38608489"
     inkscape:cx="218.86378"
     inkscape:cy="1017.9109"
     inkscape:window-width="3440"
     inkscape:window-height="1358"
     inkscape:window-x="0"
     inkscape:window-y="0"
     inkscape:window-maximized="1"
     inkscape:current-layer="g5" /><defs
     id="defs1" /><g
     inkscape:label="Layer 1"
     inkscape:groupmode="layer"
     id="layer1"
     transform="translate(217.25081,-78.636772)"><g
       id="Logotypes"
       transform="matrix(0.26458333,0,0,0.26458333,-217.25081,78.636772)">
	<g
   id="g6">
		<polygon
   class="st0"
   points="499.8,520.1 0,520.1 0,20.4 499.8,20.4 249.9,270.2 "
   id="polygon1"
   transform="translate(0,341.56365)" />
		<g
   id="g5"
   transform="translate(0,341.56365)">
			<polygon
   points="708.2,20.4 708.2,520.1 788.1,520.1 788.1,278.8 1005.9,520.1 1107.7,520.1 877.4,261.6 1104.6,18.8 1004.3,18.8 788.1,250.7 788.1,20.4 "
   id="polygon2" />
			<path
   d="m 1375.6,170.8 c -28.2,-15.7 -61.1,-25.1 -95.6,-25.1 -36,0 -68.9,7.8 -97.1,25.1 -28.2,17.3 -51.7,39.2 -67.4,67.4 -15.7,29.8 -23.5,62.7 -23.5,98.7 0,36 7.8,70.5 23.5,98.7 15.7,28.2 37.6,51.7 67.4,67.4 28.2,15.7 61.1,25.1 97.1,25.1 36,0 68.9,-7.8 97.1,-25.1 28.2,-15.7 50.1,-39.2 65.8,-67.4 15.7,-29.8 23.5,-62.7 23.5,-98.7 0,-36 -9.4,-68.9 -25.1,-98.7 -15.5,-28.3 -37.5,-51.8 -65.7,-67.4 z m -6.2,230.2 c -9.4,18.8 -21.9,32.9 -37.6,42.3 -15.7,11 -34.5,15.7 -54.8,15.7 -20.3,0 -39.2,-4.7 -56.4,-15.7 -15.7,-11 -28.2,-25.1 -37.6,-42.3 -9.4,-18.8 -12.5,-39.2 -12.5,-62.7 0,-23.5 4.7,-45.4 14.1,-62.7 9.4,-18.8 21.9,-32.9 37.6,-42.3 15.7,-11 34.5,-15.7 56.4,-15.7 20.4,0 39.2,4.7 54.8,15.7 15.7,11 28.2,25.1 37.6,42.3 9.4,18.8 12.5,39.2 12.5,62.7 0,23.5 -4.7,43.9 -14.1,62.7 z"
   id="path2" />
			<path
   d="m 1627.9,62.7 h -76.8 v 62.7 c 0,9.4 -1.6,17.2 -7.8,21.9 -4.7,4.7 -12.5,7.8 -21.9,7.8 h -37.6 v 65.8 h 65.8 v 197.4 c 0,20.4 4.7,39.2 12.5,54.8 7.8,15.7 20.4,28.2 36,36 15.7,9.4 32.9,12.5 54.8,12.5 h 59.5 v -68.9 h -43.9 c -11,0 -20.4,-3.1 -28.2,-12.5 -6.3,-7.8 -11,-18.8 -11,-31.3 v -188 h 84.6 v -65.8 h -84.6 V 62.7 Z"
   id="path3" />
			<rect
   x="1773.6"
   width="78.300003"
   height="520.09998"
   id="rect3"
   y="0" />
			<rect
   x="1941.2"
   y="1.6"
   width="79.900002"
   height="81.5"
   id="rect4" />
			<rect
   x="1941.2"
   y="155.10001"
   width="78.300003"
   height="366.5"
   id="rect5" />
			<path
   d="m 2419.1,214.6 c -11,-21.9 -26.6,-39.2 -47,-50.1 -20.4,-12.5 -43.9,-18.8 -70.5,-18.8 -28.2,0 -53.3,7.8 -75.2,20.4 -17.2,11 -31.3,26.6 -42.3,43.9 v -56.4 h -75.2 v 366.5 h 78.3 V 314.8 c 0,-20.4 3.1,-37.6 11,-53.3 7.8,-15.7 18.8,-26.6 31.3,-36 14.1,-7.8 29.8,-12.5 48.6,-12.5 17.2,0 29.8,3.1 42.3,11 12.5,7.9 20.4,17.2 26.6,29.8 6.3,12.5 9.4,28.2 9.4,45.4 v 219.3 h 78.3 V 289.8 c 1.7,-28.2 -4.5,-53.2 -15.6,-75.2 z"
   id="path5" />
		</g>
	<g
   style="fill:#000000"
   id="g1"
   transform="matrix(0.88399772,0,0,0.88399772,-32.547028,1594.1833)"><g
     id="b75708d097f2188dff6617b0f00f7c43">

<path
   display="inline"
   d="m 120.606,169 h 270.788 v 220.663 c 0,13.109 -10.628,23.737 -23.721,23.737 H 340.55 v 67.203 c 0,17.066 -13.612,30.897 -30.415,30.897 -16.846,0 -30.438,-13.831 -30.438,-30.897 V 413.4 h -47.371 v 67.203 c 0,17.066 -13.639,30.897 -30.441,30.897 -16.799,0 -30.437,-13.831 -30.437,-30.897 V 413.4 h -27.099 c -13.096,0 -23.744,-10.628 -23.744,-23.737 V 169 Z m -53.065,-1.801 c -16.974,0 -30.723,13.963 -30.723,31.2 v 121.937 c 0,17.217 13.749,31.204 30.723,31.204 16.977,0 30.723,-13.987 30.723,-31.204 V 198.399 c 0,-17.237 -13.746,-31.2 -30.723,-31.2 z M 391.395,146.764 H 120.606 c 3.342,-38.578 28.367,-71.776 64.392,-90.998 L 159.252,17.962 C 155.78,12.864 157.09,5.908 162.198,2.437 167.3,-1.034 174.242,0.286 177.731,5.38 l 28.061,41.232 c 15.558,-5.38 32.446,-8.469 50.208,-8.469 17.783,0 34.672,3.089 50.229,8.476 L 334.29,5.395 c 3.446,-5.108 10.41,-6.428 15.512,-2.957 5.108,3.471 6.418,10.427 2.946,15.525 l -25.725,37.804 c 36.024,19.21 61.032,52.408 64.372,90.997 z M 213.865,94.345 c 0,-8.273 -6.699,-14.983 -14.969,-14.983 -8.291,0 -14.99,6.71 -14.99,14.983 0,8.269 6.721,14.976 14.99,14.976 8.269,0 14.969,-6.707 14.969,-14.976 z m 116.127,0 c 0,-8.273 -6.722,-14.983 -14.99,-14.983 -8.291,0 -14.97,6.71 -14.97,14.983 0,8.269 6.679,14.976 14.97,14.976 8.269,0 14.99,-6.707 14.99,-14.976 z m 114.488,72.811 c -16.956,0 -30.744,13.984 -30.744,31.222 v 121.98 c 0,17.238 13.788,31.226 30.744,31.226 16.978,0 30.701,-13.987 30.701,-31.226 v -121.98 c 0.001,-17.238 -13.723,-31.222 -30.701,-31.222 z"
   id="path1">

</path>

</g></g><path
   d="m 869.34387,1830.3065 c 0.11292,45.1453 0.24911,121.8463 0.36226,181.4595 81.6231,11.0395 163.24627,22.4156 244.73347,34.5822 0,-71.1722 0.09,-142.026 0,-209.745 -81.691,0 -163.35944,-6.2967 -245.09573,-6.2967 m -206.55963,0 v 153.2666 c 61.5626,8.3067 123.12521,16.2522 184.57459,25.3268 0.11293,-59.297 -0.0452,-118.6188 -0.0452,-177.9181 -61.51731,0.2259 -123.01199,-0.8808 -184.52931,-0.6775 m 0,-171.4633 v 152.8397 c 61.5626,0.2258 123.12521,-0.7679 184.68782,-0.7002 -0.0452,-59.1615 -0.0452,-118.2575 -0.11293,-177.4212 -61.60788,7.6992 -123.21577,15.8479 -184.57459,25.2817 m 451.70058,149.7026 c -81.5778,0.3162 -163.1556,1.5584 -244.77869,1.8068 -0.0452,-60.1327 -0.0452,-120.1975 0,-180.2873 81.46459,-12.4375 163.11039,-24.1298 244.73349,-35.4381 0.045,71.3303 0,142.5905 0.045,213.9209"
   id="windows-[#174]"
   style="fill:#000000;fill-rule:evenodd;stroke:none;stroke-width:22.585" /><path
   d="m 1651.7865,1667.9116 c 16.5103,-19.1355 27.6392,-45.7893 24.5937,-72.3073 -23.7922,0.9059 -52.5764,15.1952 -69.6362,34.308 -15.3195,16.9615 -28.6925,44.066 -25.0974,70.0631 26.5401,1.9702 53.6297,-12.908 70.1399,-32.0638 m 59.5147,168.2972 c 0.6642,68.548 62.7435,91.3521 63.4305,91.6465 -0.5038,1.6078 -9.9152,32.4963 -32.6998,64.4243 -19.7162,27.5823 -40.1651,55.0513 -72.3841,55.6401 -31.6466,0.5662 -41.8366,-17.9805 -78.0401,-17.9805 -36.1806,0 -47.4927,17.3917 -77.4447,18.5467 -31.097,1.1096 -54.7976,-29.8469 -74.651,-57.3363 -40.623,-56.2289 -71.6513,-158.9038 -29.975,-228.197 20.7008,-34.3985 57.6828,-56.2062 97.8478,-56.7497 30.5245,-0.5661 59.3545,19.679 78.0172,19.679 18.6628,0 53.6984,-24.344 90.5202,-20.766 15.411,0.6115 58.6903,5.9558 86.4669,44.9288 -2.2441,1.3361 -51.6374,28.8731 -51.0879,86.1641"
   id="apple-[#173]"
   style="fill:#000000;fill-rule:evenodd;stroke:none;stroke-width:22.6455" /><g
   style="fill:#000000"
   id="g2"
   transform="matrix(-23.333575,0,0,23.333575,2522.4899,1548.5872)"><path
     d="m 12.642,8.084 c -0.364,0.189 -0.79,0.42 -1.242,0.42 -0.452,0 -0.81,-0.209 -1.066,-0.413 C 10.204,7.99 10.1,7.889 10.021,7.815 9.884,7.707 9.901,7.556 9.957,7.561 c 0.094,0.012 0.108,0.136 0.168,0.191 0.08,0.075 0.18,0.172 0.302,0.269 0.243,0.192 0.567,0.38 0.973,0.38 0.406,0 0.878,-0.238 1.167,-0.4 0.163,-0.092 0.371,-0.256 0.541,-0.381 0.13,-0.095 0.125,-0.21 0.232,-0.198 0.107,0.013 0.028,0.127 -0.122,0.258 a 3.404,3.404 0 0 1 -0.576,0.404 z"
     id="path1-7" /><path
     d="M 19.649,17.77 C 19.507,17.61 19.44,17.314 19.368,16.999 19.296,16.684 19.215,16.345 18.957,16.125 L 18.955,16.124 A 1.054,1.054 0 0 0 18.638,15.932 C 18.997,14.867 18.857,13.806 18.493,12.848 18.049,11.671 17.271,10.646 16.678,9.945 16.014,9.107 15.365,8.312 15.377,7.137 15.398,5.344 15.574,2.019 12.419,2.015 A 4.66,4.66 0 0 0 12.018,2.032 C 8.492,2.315 9.428,6.04 9.375,7.287 9.311,8.199 9.126,8.918 8.498,9.81 7.762,10.686 6.724,12.105 6.232,13.581 6,14.278 5.89,14.988 5.991,15.661 A 1.9,1.9 0 0 0 5.9,15.75 C 5.684,15.981 5.524,16.261 5.345,16.449 5.179,16.616 4.942,16.678 4.681,16.772 4.42,16.866 4.134,17.003 3.96,17.337 l -10e-4,0.002 a 1,1 0 0 0 -0.108,0.484 c 0,0.154 0.023,0.311 0.046,0.461 0.048,0.313 0.097,0.609 0.032,0.81 -0.206,0.564 -0.232,0.954 -0.087,1.237 0.146,0.284 0.444,0.409 0.783,0.479 0.676,0.141 1.592,0.106 2.314,0.489 L 7.001,21.182 6.94,21.3 c 0.773,0.404 1.557,0.547 2.182,0.405 0.454,-0.104 0.821,-0.374 1.011,-0.789 0.489,-0.002 1.025,-0.209 1.885,-0.256 0.583,-0.047 1.312,0.207 2.149,0.16 a 1.119,1.119 0 0 0 0.099,0.264 c 0.324,0.649 0.928,0.946 1.571,0.896 0.643,-0.05 1.329,-0.43 1.883,-1.089 l -0.102,-0.085 0.102,0.084 c 0.527,-0.64 1.403,-0.905 1.984,-1.255 0.29,-0.175 0.525,-0.395 0.544,-0.713 0.018,-0.318 -0.169,-0.675 -0.599,-1.152 z M 11.859,6.062 C 11.856,5.828 11.895,5.627 11.985,5.423 12.075,5.219 12.186,5.072 12.343,4.953 12.5,4.834 12.655,4.779 12.837,4.777 h 0.009 c 0.179,0 0.332,0.053 0.489,0.167 0.159,0.116 0.274,0.261 0.366,0.463 a 1.493,1.493 0 0 1 0.141,0.636 c 0.002,0.235 -0.038,0.435 -0.127,0.639 a 1.23,1.23 0 0 1 -0.18,0.299 L 13.461,6.948 C 13.372,6.91 13.294,6.879 13.224,6.852 13.154,6.825 13.1,6.808 13.043,6.788 13.084,6.739 13.165,6.68 13.194,6.607 A 0.943,0.943 0 0 0 13.266,6.26 L 13.268,6.244 A 0.953,0.953 0 0 0 13.218,5.907 C 13.18,5.794 13.132,5.712 13.063,5.644 12.994,5.576 12.924,5.545 12.84,5.543 h -0.011 a 0.324,0.324 0 0 0 -0.217,0.086 0.618,0.618 0 0 0 -0.174,0.25 0.944,0.944 0 0 0 -0.072,0.348 l -10e-4,0.015 a 0.992,0.992 0 0 0 0.014,0.2 2.463,2.463 0 0 0 -0.507,-0.171 1.681,1.681 0 0 1 -0.014,-0.19 V 6.062 Z M 9.715,6.114 C 9.703,5.912 9.724,5.738 9.779,5.558 9.834,5.378 9.909,5.247 10.017,5.14 a 0.516,0.516 0 0 1 0.349,-0.168 h 0.03 c 0.118,0 0.225,0.04 0.335,0.127 a 0.968,0.968 0 0 1 0.284,0.389 c 0.076,0.171 0.116,0.343 0.127,0.545 V 6.035 A 1.51,1.51 0 0 1 11.14,6.278 c -0.023,0.006 -0.046,0.014 -0.068,0.021 -0.128,0.044 -0.23,0.093 -0.328,0.158 A 0.845,0.845 0 0 0 10.747,6.243 V 6.231 A 0.95,0.95 0 0 0 10.679,5.957 0.523,0.523 0 0 0 10.541,5.754 C 10.489,5.71 10.441,5.689 10.388,5.69 l -0.017,10e-4 c -0.061,0.005 -0.11,0.034 -0.157,0.092 a 0.536,0.536 0 0 0 -0.101,0.223 0.912,0.912 0 0 0 -0.019,0.293 l 0.001,0.012 c 0.01,0.103 0.031,0.189 0.067,0.275 A 0.528,0.528 0 0 0 10.328,6.81 C 10.269,6.855 10.23,6.888 10.182,6.923 l -0.11,0.081 A 0.995,0.995 0 0 1 9.843,6.662 1.528,1.528 0 0 1 9.715,6.116 Z M 9.87,7.342 c 0.187,-0.14 0.315,-0.234 0.402,-0.298 0.086,-0.063 0.121,-0.086 0.148,-0.112 h 10e-4 c 0.14,-0.132 0.362,-0.374 0.699,-0.49 0.115,-0.04 0.245,-0.065 0.39,-0.066 0.275,-0.001 0.608,0.089 1.01,0.348 0.247,0.16 0.439,0.174 0.882,0.363 h 0.001 c 0.213,0.087 0.338,0.202 0.399,0.321 0.061,0.12 0.063,0.25 0.012,0.387 C 13.711,8.068 13.385,8.357 12.927,8.5 H 12.926 C 12.702,8.572 12.508,8.733 12.279,8.864 A 1.449,1.449 0 0 1 11.437,9.081 1.105,1.105 0 0 1 11.063,8.998 1.202,1.202 0 0 1 10.793,8.831 C 10.632,8.7 10.49,8.536 10.283,8.415 H 10.281 C 9.948,8.225 9.766,8.007 9.708,7.817 9.651,7.628 9.705,7.466 9.87,7.342 Z m 0.131,13.018 v 0.001 c -0.047,0.623 -0.398,0.961 -0.938,1.085 -0.539,0.123 -1.27,0 -1.999,-0.381 H 7.063 C 6.255,20.638 5.295,20.68 4.679,20.551 4.371,20.487 4.17,20.39 4.077,20.21 3.985,20.03 3.983,19.716 4.179,19.182 L 4.18,19.18 4.181,19.178 C 4.278,18.879 4.206,18.552 4.16,18.244 4.113,17.937 4.09,17.658 4.194,17.463 L 4.195,17.461 C 4.33,17.202 4.527,17.109 4.771,17.022 5.016,16.934 5.305,16.865 5.535,16.636 l 10e-4,-10e-4 0.001,-0.001 c 0.212,-0.223 0.371,-0.503 0.557,-0.702 0.157,-0.167 0.314,-0.279 0.551,-0.28 h 0.009 c 0.041,0 0.085,0.003 0.132,0.011 0.314,0.047 0.588,0.268 0.853,0.625 l 0.762,1.389 h 10e-4 c 0.202,0.423 0.631,0.89 0.994,1.365 0.362,0.475 0.644,0.952 0.607,1.317 z M 9.938,19.35 A 6.721,6.721 0 0 0 9.605,18.881 13.467,13.467 0 0 0 9.376,18.588 c 0.151,0 0.28,-0.024 0.384,-0.072 a 0.486,0.486 0 0 0 0.266,-0.274 C 10.116,18 10.026,17.659 9.738,17.269 9.448,16.879 8.96,16.439 8.244,16 7.717,15.672 7.423,15.271 7.285,14.835 7.147,14.399 7.166,13.928 7.272,13.462 7.476,12.568 8.001,11.7 8.335,11.154 c 0.09,-0.066 0.032,0.123 -0.339,0.811 -0.332,0.629 -0.953,2.081 -0.103,3.214 a 6.722,6.722 0 0 1 0.538,-2.398 c 0.472,-1.067 1.456,-2.919 1.534,-4.395 0.041,0.029 0.18,0.123 0.241,0.158 0.182,0.106 0.316,0.262 0.492,0.403 0.177,0.142 0.396,0.264 0.729,0.283 l 0.093,0.003 c 0.343,0 0.61,-0.112 0.833,-0.239 0.242,-0.138 0.436,-0.292 0.618,-0.351 h 10e-4 c 0.387,-0.122 0.694,-0.335 0.869,-0.585 0.302,1.186 1.001,2.897 1.45,3.733 0.239,0.443 0.715,1.385 0.92,2.52 0.13,-0.004 0.273,0.015 0.427,0.054 0.537,-1.393 -0.455,-2.892 -0.909,-3.31 -0.184,-0.178 -0.192,-0.258 -0.102,-0.254 0.492,0.436 1.139,1.311 1.374,2.3 0.107,0.451 0.13,0.925 0.016,1.393 0.056,0.023 0.113,0.048 0.171,0.076 0.862,0.42 1.181,0.785 1.027,1.283 -0.05,-0.002 -0.1,-10e-4 -0.148,0 h -0.014 c 0.125,-0.395 -0.151,-0.687 -0.889,-1.02 -0.764,-0.336 -1.373,-0.303 -1.476,0.379 a 1.302,1.302 0 0 0 -0.017,0.109 c -0.057,0.02 -0.114,0.045 -0.172,0.076 -0.358,0.197 -0.555,0.553 -0.664,0.99 -0.108,0.437 -0.14,0.964 -0.17,1.558 -0.019,0.298 -0.141,0.702 -0.266,1.129 -1.249,0.897 -2.986,1.283 -4.461,0.276 z m 9.628,0.057 c -0.524,0.317 -1.456,0.593 -2.05,1.313 -0.517,0.615 -1.146,0.952 -1.7,0.996 -0.555,0.044 -1.033,-0.186 -1.315,-0.752 V 20.963 L 14.5,20.96 c -0.175,-0.333 -0.102,-0.858 0.045,-1.412 0.147,-0.554 0.359,-1.123 0.388,-1.585 v -0.001 c 0.03,-0.592 0.063,-1.11 0.163,-1.509 0.1,-0.399 0.256,-0.669 0.533,-0.821 l 0.039,-0.02 c 0.031,0.513 0.285,1.036 0.734,1.149 0.491,0.129 1.199,-0.292 1.498,-0.636 0.06,-0.002 0.118,-0.006 0.175,-0.007 0.262,-0.006 0.481,0.009 0.707,0.205 v 0.001 h 0.001 c 0.173,0.146 0.255,0.423 0.326,0.733 0.071,0.31 0.128,0.647 0.342,0.888 h 0.001 c 0.41,0.456 0.542,0.764 0.531,0.96 -0.011,0.198 -0.153,0.344 -0.417,0.502 z"
     id="path2-6" /><path
     d="m 11.738,6.762 c 0.015,0.048 0.093,0.04 0.138,0.063 0.04,0.02 0.071,0.065 0.116,0.066 0.042,0.001 0.107,-0.015 0.113,-0.057 C 12.113,6.778 12.032,6.743 11.979,6.723 11.912,6.697 11.826,6.684 11.763,6.719 11.749,6.727 11.733,6.746 11.738,6.762 Z m -0.46,0 C 11.262,6.81 11.184,6.802 11.139,6.825 11.1,6.845 11.068,6.89 11.024,6.891 10.982,6.892 10.916,6.876 10.91,6.834 10.903,6.778 10.984,6.743 11.036,6.723 c 0.067,-0.026 0.153,-0.039 0.217,-0.004 0.015,0.008 0.03,0.027 0.025,0.043 z"
     id="path3-3" /></g></g>
</g></g><style
     type="text/css"
     id="style1">
	.st0{fill:#7F52FF;}
</style></svg>
